<svg id="Layer_2" data-name="Layer 2" xmlns="http://www.w3.org/2000/svg" viewBox="0 0 30 30"><defs><style>.cls-1{fill:#5a5a5a}</style></defs><g id="_デザイン" data-name="デザイン"><path class="cls-1" d="M15 2.7c4.01 0 4.48.02 6.06.09 1.46.07 2.26.31 2.79.52.7.27 1.2.6 1.72 1.12.52.52.85 1.02 1.12 1.72.21.53.45 1.32.52 2.79.07 1.58.09 2.06.09 6.06s-.02 4.48-.09 6.06c-.07 1.46-.31 2.26-.52 2.79-.27.7-.6 1.2-1.12 1.72-.52.52-1.02.85-1.72 1.12-.53.21-1.32.45-2.79.52-1.58.07-2.06.09-6.06.09s-4.48-.02-6.06-.09c-1.46-.07-2.26-.31-2.79-.52-.7-.27-1.2-.6-1.72-1.12-.52-.52-.85-1.02-1.12-1.72-.21-.53-.45-1.32-.52-2.79C2.72 19.48 2.7 19 2.7 15s.02-4.48.09-6.06c.07-1.46.31-2.26.52-2.79.27-.7.6-1.2 1.12-1.72s1.02-.85 1.72-1.12c.53-.21 1.32-.45 2.79-.52C10.52 2.72 11 2.7 15 2.7M15 0c-4.07 0-4.58.02-6.18.09-1.6.07-2.69.33-3.64.7-.99.38-1.82.9-2.66 1.73-.83.83-1.35 1.67-1.73 2.66-.37.95-.62 2.04-.7 3.64C.02 10.42 0 10.93 0 15s.02 4.58.09 6.18c.07 1.6.33 2.69.7 3.64.38.99.9 1.82 1.73 2.66.83.83 1.67 1.35 2.66 1.73.95.37 2.04.62 3.64.7 1.6.07 2.11.09 6.18.09s4.58-.02 6.18-.09c1.6-.07 2.69-.33 3.64-.7.99-.38 1.82-.9 2.66-1.73.83-.83 1.35-1.67 1.73-2.66.37-.95.62-2.04.7-3.64.07-1.6.09-2.11.09-6.18s-.02-4.58-.09-6.18c-.07-1.6-.33-2.69-.7-3.64-.38-.99-.9-1.82-1.73-2.66A7.308 7.308 0 0 0 24.82.79c-.95-.37-2.04-.62-3.64-.7C19.58.02 19.07 0 15 0Z"/><path class="cls-1" d="M15 7.3c-4.25 0-7.7 3.45-7.7 7.7s3.45 7.7 7.7 7.7 7.7-3.45 7.7-7.7-3.45-7.7-7.7-7.7ZM15 20c-2.76 0-5-2.24-5-5s2.24-5 5-5 5 2.24 5 5-2.24 5-5 5Z"/><circle class="cls-1" cx="23.01" cy="6.99" r="1.8"/></g></svg>