<svg id="Layer_2" data-name="Layer 2" xmlns="http://www.w3.org/2000/svg" viewBox="0 0 20 20"><defs><style>.cls-1{fill:#fff}</style></defs><g id="_ヘッダー" data-name="ヘッダー"><path class="cls-1" d="M10 1.8c2.67 0 2.99.01 4.04.06.97.04 1.5.21 1.86.34.47.18.8.4 1.15.75.35.35.57.68.75 1.15.14.35.3.88.34 1.86.05 1.05.06 1.37.06 4.04s-.01 2.99-.06 4.04c-.04.97-.21 1.5-.34 1.86-.18.47-.4.8-.75 1.15s-.68.57-1.15.75c-.35.14-.88.3-1.86.34-1.05.05-1.37.06-4.04.06s-2.99-.01-4.04-.06c-.97-.04-1.5-.21-1.86-.34-.47-.18-.8-.4-1.15-.75a3.06 3.06 0 0 1-.75-1.15c-.14-.35-.3-.88-.34-1.86-.05-1.05-.06-1.37-.06-4.04s.01-2.99.06-4.04c.04-.97.21-1.5.34-1.86.18-.47.4-.8.75-1.15s.68-.57 1.15-.75c.35-.14.88-.3 1.86-.34C7.01 1.81 7.33 1.8 10 1.8M10 0C7.28 0 6.94.01 5.88.06 4.82.11 4.09.28 3.45.52c-.66.26-1.22.6-1.77 1.15-.56.56-.9 1.11-1.15 1.77C.28 4.08.11 4.8.07 5.87.02 6.94.01 7.28.01 9.99s.01 3.06.06 4.12c.05 1.06.22 1.79.46 2.43.26.66.6 1.22 1.15 1.77.56.56 1.11.9 1.77 1.15.64.25 1.36.42 2.43.46 1.07.05 1.41.06 4.12.06s3.06-.01 4.12-.06c1.06-.05 1.79-.22 2.43-.46.66-.26 1.22-.6 1.77-1.15.56-.56.9-1.11 1.15-1.77.25-.64.42-1.36.46-2.43.05-1.07.06-1.41.06-4.12s-.01-3.06-.06-4.12c-.05-1.06-.22-1.79-.46-2.43-.26-.66-.6-1.22-1.15-1.77-.56-.56-1.11-.9-1.77-1.15-.64-.25-1.36-.42-2.43-.46C13.05.01 12.71 0 10 0Z"/><path class="cls-1" d="M10 4.86c-2.84 0-5.14 2.3-5.14 5.14s2.3 5.14 5.14 5.14 5.14-2.3 5.14-5.14-2.3-5.14-5.14-5.14Zm0 8.47c-1.84 0-3.33-1.49-3.33-3.33S8.16 6.67 10 6.67s3.33 1.49 3.33 3.33-1.49 3.33-3.33 3.33Z"/><circle class="cls-1" cx="15.34" cy="4.66" r="1.2"/></g></svg>