<?xml version="1.0" encoding="UTF-8"?>
<svg id="Layer_2" data-name="Layer 2" xmlns="http://www.w3.org/2000/svg" viewBox="0 0 160 73.08">
  <defs>
    <style>
      .cls-1 {
        fill: #fff;
      }
    </style>
  </defs>
  <g id="_ヘッダー" data-name="ヘッダー">
    <g>
      <path class="cls-1" d="M83.96,46.88c-.73-1.7-3.3-2.18-5.06-2.37,2.05-.64,3.57-1.77,4.27-3.64,0-.23,.06-.44,.06-.64,0-1.68-1.7-3.01-3.63-3.07-1.51,0-3.01,0-4.51,.03-.08,.34-.16,.67-.24,.99h3.09c1.17,.12,2.16,.86,2.51,1.83,.06,.23,.06,.64,.06,.94,0,2.44-2.81,3.69-5.44,3.69-.3,0-.65-.07-.94-.07l.39-5.17c-.76,2.72-1.72,5.2-2.84,7.46-.18,1.92-.41,3.84-.66,5.76h-.32c-.47,0-.97,.12-1.49,.21-.27,.14-.53,.43-.76,.62h9.18c.44,0,.97,0,1.37-.1,2.73-.52,5.24-2.51,5.24-5.01,0-.43-.12-1.01-.29-1.44Zm-2.87,3.99c-.91,1.47-2.78,2.16-4.53,2.16-.94,0-2.02-.26-2.93-.53,0-.56-.02-1.13-.02-1.68,0-1.63,.17-3.38,.38-4.99,.15-.17,.24-.31,.56-.36l1.93,.05c.99,.05,1.9,.19,2.75,.5,1.61,.49,2.32,1.72,2.32,3,0,.64-.18,1.21-.44,1.85Z"/>
      <path class="cls-1" d="M92.75,44.48c-.55-.17-1.07-.27-1.51-.27-.93,0-1.63,.41-2.56,1.04-.41,2.86-.73,5.71-.85,8.56l-2.04,.57c0-2.7,.26-5.49,.78-8.33v-.36c0-.46-.2-1.01-.4-1.33-.12-.05-.41-.05-.59-.05-.58,0-1.28,.32-1.66,.46l.15-.6c1.11-.77,2.65-1.91,4.19-2.1,.06,0,.2,.1,.27,.1,.09,.43,.2,1.08,.2,1.61v.53l3-2.14h.47c.38,0,.87,.04,1.31,.09l-.76,2.22Z"/>
      <path class="cls-1" d="M97.7,39.87c-.2,0-.38,0-.49-.12-.38-.53-.76-1.13-1.02-1.74l1.92-1.37h.29l1.17,1.91-1.86,1.32Zm3.67,12.23l-2.97,1.99c-.41,.27-1.07,.44-1.57,.44-.2,0-.44-.05-.64-.05-.44-.53-.81-1.18-.87-1.95,.11-2.41,.4-4.92,.64-7.31v-.02c0-.34-.41-.77-.64-.9l-2.01,.63v-.65c1.25-.79,2.5-1.42,3.81-2.02,.26,0,.58-.09,.79-.09h.15l.2,.51c-.2,2.72-.35,5.45-.61,8.17,0,.46,.06,.84,.2,1.25,.15,.36,.64,.57,.96,.57,.88,0,2.16-.86,2.71-1.33l-.15,.75Z"/>
      <path class="cls-1" d="M108.16,44.09l-.35,6.63-2.77,1.62c-.29,0-.43,0-.66-.2-.82-.7-1.14-1.83-1.14-2.91,0-1.38,.44-2.99,.64-4.02,.14-.68,.56-1.43,1.32-1.76h.38c.85,0,1.92,.33,2.59,.65Zm6.96-9.69c-.53,0-1.17-.12-1.66-.12h-.27c-.29,0-.67,.19-1.02,.41-1.04,.82-2.12,1.76-3.06,2.82-.55,1.52-.78,3.09-.78,4.66l-2.7,.04c-1.14,.58-2.27,1.43-3.14,2.27l-.49,.99c-.44,1.59-.76,3.28-.76,4.91,0,.34,.09,.72,.09,1.06,.12,.9,.49,2.85,1.78,2.85h.46l4.4-2.75,.5,2.55c.11,.1,.35,.25,.58,.27,.2,0,.46-.07,.7-.22,1.4-.68,2.68-1.62,3.9-2.51v-.79l-2.62,1.42-.5-.12c-.2-.55-.41-1.23-.46-1.88,0-.58-.03-1.23-.03-1.83,0-3.81,.35-7.69,1.05-11.47,.2-.36,.44-.68,.7-.92,.41-.14,.9-.29,1.34-.29,.35,0,.79,.07,1.05,.19l.96-1.54Z"/>
      <path class="cls-1" d="M120.71,44.28l-.55,5.78-.2,.65c-.93,.58-1.87,1.16-2.86,1.62l-.14,.04c-.06,0-.15-.04-.26-.04-.46-.46-.84-.9-1.05-1.49,0-.58-.09-1.31-.09-1.96,0-1.57,.3-3.3,.96-4.61,.38-.43,.96-.6,1.37-.6h.46c.52,0,1.17,.09,1.72,.14,.23,.08,.47,.27,.64,.46Zm5.04,7.4v-.77l-2.88,1.47c-.33-.46-.5-.89-.59-1.35,0-2.48,0-4.84,.38-7.26,.21-.38,.53-.85,.76-1.18l-.23-.19c-1.46-.2-2.82-.39-4.31-.39-1.51,.15-2.94,1.38-3.9,2.27-.35,.44-.58,.97-.81,1.49-.38,1.3-.82,2.97-.82,4.49s.44,3.04,1.46,4.12h.55l4.66-2.7,.55,2.51c.15,.15,.38,.19,.53,.19,.05,0,.31-.02,.41-.02l4.25-2.68Z"/>
      <path class="cls-1" d="M132.58,36.01c-.35-.07-.78-.12-1.13-.12-.49,0-1.14,.12-1.66,.27-.2,.24-.41,.48-.49,.8-.93,4.55-1.4,9.16-1.4,13.76,.18,.72,.38,1.62,1.22,1.62,.12,0,.26-.07,.35-.07l2.68-1.42v.79l-4.14,2.56c-.2,.15-.52,.17-.67,.17-.35,0-.61-.07-.99-.27-.26-.53-.58-1.18-.64-1.9,.06-4.58,.58-9.28,1.16-13.91l.35-.96c1.06-1.11,2.54-2.7,4.23-2.99,.7,.07,1.45,.15,2.18,.29l-1.06,1.4Z"/>
      <g>
        <path class="cls-1" d="M1.64,41.44c.78,.85,1.32,1.41,1.61,1.67l1.53,1.4,2.44-3.36-.2-.19c-2.14-1.95-3.4-3.56-3.76-4.83-.44-1.55-.31-2.82,.41-3.81,.27-.37,.58-.67,.93-.89l.22,1.51c-.47,.17-.83,.42-1.07,.75-.49,.67-.49,1.39,0,2.14,.48,.75,1.81,2.12,3.99,4.09l.77,.7c.96,.86,1.73,1.51,2.31,1.93,.34,.25,.61,.23,.83-.07,.16-.21,.26-.55,.31-1.01,.09,.04,.14,.07,.17,.09,.12,.09,.15,.27,.09,.56l-.09,.46-.47,2.36c-.75-.54-1.94-1.56-3.58-3.04l-.2-.18-2.43,3.36,.5,.46,.61,.56c.53,.48,.85,.9,.97,1.27,.12,.36,.12,.88,0,1.56l1.1-1.36,.19,1.23-2.01,2.52-.18-1.3,.53-.62c.02-.46-.07-.86-.3-1.21-.22-.35-.71-.86-1.48-1.55l-3.88-3.54-.13,.19c-1.23,1.7-1.29,2.94-.18,3.74,.35,.25,.77,.39,1.27,.43l.22,1.67c-.38-.13-.73-.31-1.03-.53-1.03-.75-1.59-1.73-1.65-2.96-.07-1.23,.36-2.48,1.29-3.75l.34-.48Z"/>
        <path class="cls-1" d="M15.37,36.81c.15-.04,.26-.02,.35,.06,.11,.1,.2,.39,.27,.88,.16,1.29-.04,2.24-.59,2.85-.34,.38-.77,.56-1.28,.53-.52-.02-1-.25-1.47-.66-.84-.76-1.4-1.85-1.69-3.25-.29-1.41-.15-2.42,.41-3.05,.4-.45,.85-.46,1.33-.02,.54,.49,.83,1.22,.88,2.21,.04,.99-.17,1.95-.65,2.88,.95,.72,1.7,.77,2.27,.15,.55-.61,.61-1.47,.18-2.57Zm-3.12,1.82c.14-.07,.24-.16,.32-.25,.41-.45,.63-.98,.66-1.57,.03-.6-.14-1.06-.52-1.4-.43-.39-.85-.37-1.24,.07-.28,.32-.35,.77-.2,1.37,.15,.6,.48,1.18,.98,1.78Z"/>
        <path class="cls-1" d="M19.21,32.25c.23,1.06,.3,2.03,.22,2.93-.07,.89-.29,1.51-.65,1.85-.49,.47-1.12,.31-1.88-.5-1.04-1.1-1.59-2.39-1.63-3.88-.04-1.49,.43-2.7,1.41-3.64,.37-.36,.73-.61,1.09-.77,.04,.08,.07,.13,.08,.15l.21,.35c.14,.24,.23,.38,.26,.41l1.92,2.73,.28,.39c.28,.39,.47,.64,.58,.76,.15,.16,.26,.19,.35,.1,.3-.28,.29-.91-.04-1.88,.15-.03,.26-.02,.31,.04,.12,.13,.2,.52,.26,1.2,.07,.92-.07,1.55-.44,1.89-.26,.25-.56,.19-.9-.16-.1-.11-.23-.27-.39-.48l-.36-.49-.38-.55-.32-.46Zm-1.73-2.45c-.5,.13-.92,.35-1.26,.67-.5,.48-.63,1.19-.39,2.14,.24,.95,.8,1.87,1.67,2.79,.44,.47,.81,.57,1.09,.31,.32-.3,.48-.92,.46-1.84-.01-1.24-.38-2.38-1.09-3.4l-.47-.67Z"/>
        <path class="cls-1" d="M23.03,27.62c-.46-2.32-.27-3.81,.56-4.48,.22-.18,.47-.3,.77-.37l-.1,1.54c-.18,.03-.37,.12-.56,.28-.4,.32-.57,.99-.48,2.01,.08,1.01,.37,1.9,.86,2.67l.98,1.55-.62,.98-.12-.19-.27-.41-.26-.42-1.92-3.01-.21-.33c-.15-.25-.29-.45-.41-.59-.19-.24-.35-.3-.48-.19-.31,.25-.36,.84-.14,1.75-.15,0-.25-.04-.31-.12-.18-.25-.22-.73-.1-1.46,.11-.73,.28-1.19,.53-1.39,.33-.26,.67-.18,1.02,.25,.09,.11,.19,.25,.31,.45l.29,.44,.34,.53,.33,.52Z"/>
        <path class="cls-1" d="M27.08,22.05l1.57,2.89c.28,.52,.5,.89,.67,1.12,.32,.45,.63,.57,.95,.35,.33-.23,.49-.75,.46-1.56,.12,.03,.2,.08,.24,.15,.16,.23,.15,.64-.03,1.24-.18,.6-.41,1-.7,1.2-.58,.4-1.13,.24-1.64-.5-.18-.27-.46-.73-.81-1.39l-1.58-2.89-1.29,.9,.22-1.22,.65-.46-.65-1.21,.7-.94,.84,1.53,2.56-1.78-.21,1.21-1.93,1.35Z"/>
        <path class="cls-1" d="M41.73,20.17l-.79,.9-.07-.2-.19-.52-.19-.49-1.15-3.15-.12-.36c-.07-.18-.14-.36-.23-.53-.22-.43-.45-.58-.71-.45-.41,.2-.68,.86-.81,1.96-.13,1.1-.05,2.06,.24,2.85l.62,1.69-.8,.9-.07-.2-.19-.52-.18-.5-1.19-3.27-.14-.37c-.1-.29-.2-.52-.28-.69-.14-.28-.28-.39-.43-.32-.33,.16-.51,.72-.52,1.66-.15-.03-.23-.08-.26-.14-.13-.27-.07-.75,.2-1.45,.26-.7,.53-1.12,.82-1.26,.38-.19,.69-.04,.94,.45,.06,.13,.13,.3,.21,.52l.21,.56,.17,.48,.18,.51,.04-.39c.21-2.1,.74-3.36,1.61-3.79,.41-.2,.77-.01,1.06,.58,.05,.1,.14,.33,.27,.68l.24,.65,.32,.88c-.01-1.06,.12-2.02,.41-2.86,.28-.85,.65-1.38,1.09-1.6,.43-.22,.8-.04,1.08,.53,.12,.24,.23,.55,.35,.91l.87,2.65c.17,.55,.33,.96,.47,1.24,.11,.24,.24,.32,.37,.26,.15-.07,.28-.29,.38-.66,.11-.37,.15-.74,.13-1.13,.16,.02,.26,.07,.29,.13,.14,.28,.08,.78-.19,1.5-.26,.72-.55,1.15-.84,1.3-.38,.19-.69,.03-.95-.48-.15-.32-.35-.84-.58-1.56l-.56-1.72c-.02-.06-.07-.2-.14-.4-.03-.08-.09-.23-.16-.43-.07-.2-.13-.35-.18-.45-.19-.38-.4-.51-.65-.39-.41,.21-.69,.86-.82,1.97-.13,1.11-.06,2.06,.24,2.86l.61,1.69Z"/>
        <path class="cls-1" d="M50.83,13.52c-.22,1.06-.55,1.98-.98,2.75-.43,.78-.89,1.25-1.35,1.42-.64,.23-1.15-.18-1.51-1.21-.51-1.42-.48-2.82,.09-4.19,.56-1.38,1.48-2.29,2.76-2.75,.49-.17,.92-.26,1.31-.26,.01,.09,.01,.15,.02,.17l.05,.4c.04,.28,.06,.44,.07,.48l.65,3.25,.1,.47c.09,.46,.17,.77,.22,.92,.07,.2,.16,.28,.28,.24,.39-.14,.64-.72,.74-1.73,.15,.03,.24,.08,.27,.16,.06,.16-.02,.56-.25,1.21-.31,.87-.7,1.38-1.17,1.55-.34,.12-.59-.04-.76-.5-.05-.14-.1-.34-.16-.6l-.13-.58-.13-.65-.11-.55Zm-.59-2.92c-.51-.09-.98-.05-1.42,.11-.65,.23-1.07,.83-1.22,1.78-.16,.96-.03,2.03,.39,3.2,.22,.61,.5,.84,.87,.71,.41-.15,.81-.64,1.17-1.49,.49-1.14,.62-2.31,.37-3.52l-.16-.79Z"/>
        <path class="cls-1" d="M57.96,7.27l-.09-.64c-.22-1.57-.03-2.98,.58-4.22,.61-1.24,1.49-2.01,2.62-2.29,.27-.07,.51-.11,.72-.11l-.75,1.28c-.24-.02-.52,0-.82,.09-.72,.19-1.19,.58-1.41,1.17-.22,.6-.25,1.52-.07,2.77l.87,6.19,.07,.47c.06,.42,.11,.71,.16,.89,.06,.24,.16,.34,.28,.31,.4-.1,.68-.66,.85-1.66,.15,.04,.23,.1,.26,.18,.04,.17-.07,.56-.32,1.17-.36,.83-.78,1.3-1.26,1.43-.37,.09-.62-.11-.75-.62-.05-.19-.12-.57-.2-1.14l-.09-.65-.08-.54c-.14,.8-.5,1.63-1.06,2.47-.57,.84-1.09,1.33-1.56,1.45-.68,.17-1.16-.27-1.43-1.33-.36-1.39-.21-2.75,.45-4.1,.66-1.35,1.57-2.17,2.75-2.47,.06-.02,.15-.04,.28-.06Zm.14,1.07c-.46-.12-.86-.13-1.2-.04-.71,.18-1.2,.74-1.45,1.66-.26,.92-.23,2,.09,3.24,.16,.62,.42,.88,.79,.79,.44-.11,.88-.57,1.31-1.38,.56-1.04,.75-2.18,.58-3.43l-.12-.83Z"/>
        <path class="cls-1" d="M66.52,10.33c.14,.06,.21,.15,.23,.26,.02,.15-.09,.44-.33,.86-.67,1.12-1.41,1.75-2.23,1.89-.5,.09-.94-.04-1.33-.38-.39-.34-.64-.81-.75-1.43-.19-1.11,.03-2.31,.68-3.6,.64-1.29,1.38-2,2.2-2.15,.6-.11,.95,.16,1.06,.8,.13,.72-.1,1.48-.67,2.28-.57,.8-1.34,1.43-2.29,1.87,.3,1.15,.86,1.65,1.69,1.51,.81-.14,1.39-.78,1.73-1.92Zm-3.58-.48c.15,.02,.28,.02,.4,0,.6-.11,1.1-.38,1.49-.83,.39-.45,.54-.93,.46-1.42-.1-.57-.44-.8-1.02-.7-.42,.07-.75,.39-1.01,.95-.25,.56-.36,1.23-.32,2Z"/>
        <path class="cls-1" d="M78.26,10.92c-1.02,.8-2.12,1.21-3.27,1.23-.79,.01-1.43-.21-1.93-.67-.49-.46-.75-1.06-.76-1.81-.02-1.44,.99-2.65,3.03-3.64-.33-.8-.5-1.44-.51-1.92,0-.73,.23-1.35,.73-1.84,.49-.49,1.12-.74,1.89-.76,1.11-.02,1.67,.46,1.68,1.45,.02,.91-.87,1.86-2.64,2.88,.06,.12,.09,.19,.1,.21l.21,.41c.17,.34,.3,.59,.39,.73,.74-.79,1.89-1.2,3.46-1.23l1.02-.02,.54-.02c.88-.01,1.5-.13,1.87-.35,.37-.22,.55-.59,.54-1.1,0-.3-.16-.59-.45-.88l.8-.84c.21,.27,.32,.63,.33,1.05,.01,.94-.38,1.7-1.17,2.27-.79,.57-1.85,.87-3.17,.89h-.14c-.24,1.16-.83,2.22-1.76,3.17,.51,.7,.98,1.05,1.41,1.04,.34,0,.7-.28,1.06-.8,.08,.07,.12,.15,.12,.24,0,.26-.2,.56-.62,.91-.42,.35-.79,.53-1.11,.53-.47,0-1.02-.38-1.67-1.15Zm-.2-.25l-.18-.24c-.82-1.12-1.56-2.39-2.23-3.83l-.13-.28c-1.28,.65-1.91,1.6-1.89,2.86,.01,.69,.25,1.24,.7,1.68,.46,.44,1.03,.64,1.73,.64,.67-.01,1.34-.28,2.01-.82Zm-1.7-5.09c1.18-.7,1.77-1.49,1.75-2.37,0-.35-.13-.64-.37-.88-.25-.24-.54-.36-.87-.36-.77,.01-1.15,.49-1.13,1.43,.01,.5,.22,1.23,.62,2.18Zm2.48,4.31c.67-.96,1.04-1.93,1.1-2.89h-.22c-1.08,.02-1.88,.17-2.4,.44,.09,.16,.15,.26,.16,.29l.52,.86c.39,.63,.66,1.07,.84,1.29Z"/>
        <path class="cls-1" d="M97.56,3.51c-.43,1.07-.7,1.8-.82,2.18l-.62,1.98,4.05,.77,.08-.26c.85-2.77,1.78-4.59,2.77-5.46,1.22-1.06,2.43-1.48,3.62-1.25,.45,.09,.85,.24,1.2,.47l-1.28,.85c-.35-.36-.73-.58-1.13-.65-.83-.16-1.48,.14-1.95,.9-.48,.75-1.14,2.54-2,5.36l-.3,.98c-.38,1.24-.63,2.21-.76,2.92-.08,.41,.06,.65,.41,.72,.27,.05,.61,0,1.04-.14,0,.09,0,.15,0,.18-.02,.15-.18,.25-.46,.32l-.46,.12-2.33,.58c.17-.9,.58-2.41,1.22-4.53l.08-.26-4.05-.77-.2,.65-.25,.79c-.21,.67-.46,1.14-.73,1.4-.27,.27-.74,.49-1.41,.66l1.71,.42-1.04,.7-3.14-.74,1.11-.74,.78,.23c.43-.17,.75-.44,.97-.78,.21-.34,.47-1,.77-1.98l1.53-5.01-.23-.05c-2.05-.39-3.2,.09-3.46,1.44-.09,.42-.04,.87,.13,1.34l-1.41,.92c-.04-.4-.02-.79,.04-1.17,.24-1.26,.9-2.18,1.98-2.76,1.08-.58,2.39-.73,3.95-.43l.57,.11Z"/>
        <path class="cls-1" d="M107.86,13.46c-.81,.71-1.62,1.24-2.44,1.6-.81,.36-1.46,.46-1.92,.31-.65-.2-.8-.83-.47-1.88,.46-1.44,1.33-2.53,2.6-3.29,1.28-.75,2.56-.93,3.85-.51,.49,.15,.89,.35,1.2,.58-.05,.08-.09,.12-.09,.14l-.2,.35c-.14,.24-.22,.39-.24,.43l-1.45,2.99-.21,.43c-.21,.43-.33,.72-.38,.87-.06,.2-.04,.32,.08,.36,.39,.13,.94-.19,1.63-.95,.1,.12,.14,.21,.12,.29-.06,.16-.36,.43-.93,.81-.77,.51-1.39,.69-1.86,.54-.34-.11-.44-.4-.3-.86,.04-.14,.12-.33,.23-.58l.25-.54,.29-.59,.25-.5Zm1.3-2.68c-.35-.38-.75-.64-1.18-.77-.65-.21-1.33,.02-2.04,.68-.7,.66-1.24,1.59-1.62,2.79-.2,.61-.11,.97,.25,1.09,.42,.13,1.02-.03,1.82-.48,1.07-.61,1.88-1.47,2.42-2.58l.36-.73Z"/>
        <path class="cls-1" d="M111.99,17.86l-1.22-.02,.1-.19,.28-.48,.25-.46,1.72-3.01,.2-.34c.15-.27,.26-.49,.33-.66,.12-.29,.12-.47-.03-.53-.35-.15-.88,.09-1.61,.7-.07-.14-.09-.23-.07-.3,.12-.27,.53-.54,1.24-.8,.7-.26,1.2-.33,1.49-.2,.39,.17,.49,.5,.27,1-.06,.13-.14,.29-.25,.5l-.29,.53-.25,.44-.27,.46c.88-.57,1.74-.98,2.6-1.24,.86-.25,1.51-.27,1.96-.09,.44,.19,.52,.59,.26,1.2-.08,.19-.22,.46-.43,.81l-1.46,2.39c-.3,.48-.51,.86-.63,1.16-.1,.24-.09,.38,.04,.44,.32,.14,.89-.12,1.71-.77,.08,.11,.11,.21,.07,.28-.13,.3-.55,.58-1.27,.84-.72,.27-1.24,.33-1.56,.19-.36-.15-.43-.48-.22-.99,.16-.37,.43-.87,.81-1.49l.95-1.55c.31-.5,.53-.91,.66-1.22,.16-.36,.11-.59-.14-.7-.57-.25-1.32-.1-2.24,.44-.93,.54-1.64,1.23-2.12,2.1l-.89,1.56Z"/>
        <path class="cls-1" d="M125.6,17.01l.36-.53c.92-1.31,2.03-2.21,3.33-2.71,1.3-.49,2.47-.46,3.5,.11,.25,.14,.45,.27,.6,.41l-1.44,.43c-.17-.18-.39-.34-.67-.5-.65-.35-1.27-.39-1.83-.11-.57,.28-1.22,.94-1.94,1.98l-3.57,5.12-.27,.38c-.24,.35-.41,.6-.49,.76-.12,.21-.12,.35,0,.42,.36,.2,.94-.01,1.75-.62,.08,.13,.1,.23,.06,.3-.08,.16-.43,.37-1.03,.63-.83,.35-1.46,.42-1.89,.18-.34-.18-.38-.5-.13-.96,.09-.17,.3-.49,.63-.97l.38-.54,.31-.46c-.65,.49-1.47,.85-2.46,1.08-.99,.23-1.69,.23-2.12,0-.61-.33-.66-.98-.13-1.94,.68-1.25,1.72-2.15,3.12-2.69,1.39-.54,2.62-.52,3.69,.07,.06,.03,.14,.08,.25,.15Zm-.62,.88c-.26-.4-.54-.68-.85-.85-.64-.35-1.37-.28-2.19,.22-.81,.5-1.52,1.31-2.14,2.43-.3,.56-.29,.93,.04,1.11,.4,.22,1.04,.18,1.89-.11,1.11-.38,2.03-1.08,2.76-2.11l.48-.69Z"/>
        <path class="cls-1" d="M133.07,30.17l-1.15-.32,.14-.15,.39-.4,.36-.37,2.35-2.41,.27-.27c.14-.14,.27-.29,.38-.44,.3-.38,.33-.66,.1-.84-.36-.28-1.06-.24-2.12,.12-1.05,.36-1.88,.85-2.47,1.46l-1.25,1.29-1.15-.32,.15-.15,.38-.4,.36-.37,2.43-2.49,.28-.28c.22-.22,.38-.41,.49-.55,.2-.25,.23-.42,.11-.52-.29-.23-.86-.14-1.72,.25-.03-.14-.03-.24,.01-.3,.19-.23,.65-.39,1.39-.46,.74-.07,1.24-.01,1.48,.19,.33,.26,.33,.6,0,1.03-.09,.11-.21,.25-.37,.42l-.42,.44-.36,.36-.38,.38,.37-.13c1.98-.73,3.35-.8,4.1-.21,.36,.29,.34,.69-.06,1.21-.07,.09-.23,.27-.49,.53l-.48,.49-.65,.67c.95-.47,1.87-.76,2.76-.87,.89-.11,1.53-.01,1.92,.29,.38,.3,.38,.7,0,1.2-.17,.22-.39,.45-.67,.71l-2,1.93c-.42,.39-.73,.71-.92,.96-.16,.2-.19,.35-.07,.44,.13,.11,.39,.13,.76,.06,.37-.06,.73-.18,1.07-.37,.06,.15,.06,.26,0,.32-.19,.25-.67,.41-1.43,.48-.76,.07-1.27,0-1.52-.19-.33-.26-.33-.61,.02-1.06,.22-.28,.6-.68,1.15-1.21l1.31-1.25s.15-.15,.3-.3c.06-.06,.17-.17,.32-.33,.15-.15,.26-.28,.33-.36,.26-.33,.28-.58,.06-.76-.37-.29-1.09-.25-2.15,.1-1.06,.36-1.89,.84-2.48,1.45l-1.25,1.28Z"/>
        <path class="cls-1" d="M143.02,35.46c-1.04,.27-2.01,.38-2.9,.33-.89-.05-1.51-.24-1.86-.59-.48-.47-.34-1.1,.43-1.88,1.06-1.07,2.32-1.66,3.8-1.75,1.48-.09,2.7,.33,3.67,1.28,.37,.36,.64,.71,.8,1.06-.08,.05-.13,.07-.15,.09l-.34,.22c-.23,.15-.37,.24-.4,.27l-2.65,2-.38,.29c-.38,.29-.62,.49-.73,.6-.15,.15-.18,.27-.09,.35,.29,.29,.91,.25,1.88-.11,.04,.15,.02,.25-.03,.31-.12,.13-.52,.22-1.19,.3-.92,.11-1.55-.02-1.9-.36-.26-.25-.22-.55,.12-.9,.11-.11,.26-.24,.47-.4l.48-.37,.53-.4,.45-.34Zm2.36-1.79c-.14-.5-.38-.9-.7-1.23-.49-.48-1.2-.59-2.12-.31-.93,.27-1.83,.85-2.7,1.75-.46,.46-.54,.82-.27,1.09,.32,.31,.93,.44,1.84,.4,1.23-.06,2.34-.45,3.32-1.2l.64-.48Z"/>
        <path class="cls-1" d="M151.76,39.15l.53-.36c1.32-.88,2.67-1.33,4.05-1.31,1.38,.01,2.46,.47,3.23,1.38,.18,.21,.32,.41,.42,.61l-1.5-.12c-.09-.23-.24-.47-.45-.72-.49-.56-1.05-.82-1.68-.76-.63,.05-1.48,.44-2.52,1.14l-5.17,3.49-.39,.27c-.35,.24-.6,.42-.74,.54-.18,.15-.23,.28-.15,.38,.27,.32,.89,.33,1.86,.05,.03,.16,.01,.26-.05,.31-.13,.12-.52,.19-1.18,.22-.9,.03-1.52-.14-1.83-.51-.25-.3-.17-.61,.23-.95,.15-.13,.46-.36,.94-.68l.55-.37,.46-.32c-.78,.23-1.69,.27-2.69,.14-1.01-.14-1.67-.39-1.99-.77-.45-.53-.26-1.15,.58-1.86,1.09-.93,2.39-1.4,3.89-1.4,1.49,0,2.63,.45,3.43,1.38,.03,.05,.09,.12,.17,.23Zm-.89,.59c-.1-.47-.26-.83-.48-1.09-.47-.56-1.18-.75-2.12-.57-.94,.18-1.91,.68-2.89,1.51-.49,.42-.62,.77-.37,1.06,.3,.35,.9,.53,1.81,.57,1.18,.04,2.3-.29,3.35-1l.7-.48Z"/>
        <path class="cls-1" d="M152.74,48.21c0,.15-.04,.27-.14,.33-.12,.09-.43,.12-.91,.07-1.29-.11-2.18-.51-2.66-1.18-.3-.41-.38-.86-.24-1.36,.13-.5,.45-.94,.96-1.3,.91-.67,2.09-.99,3.53-.97,1.44,.01,2.4,.36,2.89,1.04,.36,.49,.27,.93-.26,1.31-.59,.43-1.38,.56-2.35,.39-.98-.17-1.87-.57-2.68-1.23-.9,.77-1.1,1.5-.62,2.18,.49,.67,1.32,.91,2.48,.72Zm-1.13-3.43c.04,.14,.1,.27,.17,.37,.36,.49,.82,.81,1.4,.97,.57,.15,1.07,.07,1.48-.22,.47-.34,.53-.75,.19-1.22-.25-.35-.68-.51-1.3-.49-.61,.02-1.27,.22-1.94,.6Z"/>
      </g>
      <g>
        <path class="cls-1" d="M42.18,38.21h-.5c-4.75,.19-6.77,4.39-6.77,8.27,0,1.23,.3,2.56,.65,3.59,.96,2.2,3.37,3.62,5.75,3.62,1.02,0,2.23-.27,3.16-.77,.82-.53,1.58-1.18,2.17-1.88,1.02-1.62,1.61-3.62,1.61-5.64s-.53-3.91-1.7-5.4c-1-1.14-2.73-1.78-4.37-1.78Z"/>
        <path class="cls-1" d="M75.08,37.18c1.21-5.24,1.72-11.29,1.36-18.24-2.38,2.12-8.82,1.59-14.09,2.67-12.4,2.93-40.49,13.5-31.75,45.87l-2.57,4.77,1.93,.81c-.31-2.12,2.24-4.01,2.24-4.01,1.2-2.49,9.33-2.13,12.88-2.62,3.54-.49,6.93-2.04,12.82-5.01,3.48-1.96,6.59-4.6,9.29-7.85l-.95,.77c-3.71-.03-7.5-.27-11.27-.56-.44,0-1.13-.05-1.66-.05-1.44,0-2.86,.19-3.79,1.15-.19-.12-.25-.53-.25-.62,0-.1,.06-.14,.06-.2,0,0,0-.09,.13-.09,4.46-4.92,9.04-9.79,13.84-14.54l-9.63,.29-.72,.39-1.32,2.57c-.28-.04-.53-.17-.72-.31l1.38-4.56,.85-.34,11.92,.2,1.58-.53-.22,.84c-4.62,4.39-9.04,8.92-13.18,13.62l1.6-.09,8.85,.84,2.99-.28c.89-.3,1.75-.7,2.58-1.14,.87-1.29,1.7-2.64,2.44-4.11,.27-2.83,.44-5.66,.45-8.48l-.23-.19-2.81-.13,.85-.62c1.71-.14,3.42-.2,5.14-.23Zm-24.75,10.52c-1.15,3.14-3.52,5.39-6.98,6.38-.53,.06-1.03,.2-1.56,.27l-3.87,.02c-3.98-.48-5.63-3.73-5.63-6.96,0-1.83,.5-3.74,1.29-5.21,1.67-2.84,4.98-4.58,8.42-4.97l3.81,.07c3.82,.51,5.04,3.81,5.04,6.89,0,1.26-.15,2.49-.52,3.5Z"/>
        <path class="cls-1" d="M70.14,51.18v-.72c-.28,.19-.6,.33-.9,.5-.64,.94-1.34,1.78-2.04,2.64l2.94-2.41Z"/>
      </g>
    </g>
  </g>
</svg>