<?xml version="1.0" encoding="UTF-8"?>
<svg id="Layer_2" data-name="Layer 2" xmlns="http://www.w3.org/2000/svg" viewBox="0 0 31.98 26">
  <defs>
    <style>
      .cls-1 {
        fill: #5a5a5a;
      }
    </style>
  </defs>
  <g id="_デザイン" data-name="デザイン">
    <g id="Logo_FIXED" data-name="Logo — FIXED">
      <path class="cls-1" d="M10.04,26c12.07,0,18.67-10.01,18.67-18.67,0-.28,0-.56-.01-.84,1.28-.92,2.39-2.09,3.28-3.4-1.18,.52-2.44,.87-3.77,1.04,1.36-.81,2.39-2.1,2.89-3.63-1.27,.75-2.67,1.29-4.17,1.59-1.2-1.28-2.9-2.07-4.79-2.07-3.62,0-6.56,2.94-6.56,6.56,0,.51,.06,1.01,.17,1.5-5.45-.27-10.29-2.89-13.52-6.86-.56,.97-.88,2.1-.88,3.3,0,2.28,1.16,4.29,2.92,5.46-1.07-.04-2.09-.33-2.97-.82v.09c0,3.17,2.26,5.83,5.26,6.44-.55,.15-1.13,.23-1.73,.23-.42,0-.83-.04-1.23-.12,.83,2.61,3.26,4.5,6.13,4.56-2.25,1.77-5.08,2.81-8.15,2.81-.52,0-1.05-.03-1.56-.09,2.89,1.84,6.35,2.93,10.04,2.93"/>
    </g>
  </g>
</svg>