<svg data-name="Layer 2" xmlns="http://www.w3.org/2000/svg" viewBox="0 0 31.98 26"><g data-name="デザイン"><path d="M10.04 26c12.07 0 18.67-10.01 18.67-18.67 0-.28 0-.56-.01-.84 1.28-.92 2.39-2.09 3.28-3.4-1.18.52-2.44.87-3.77 1.04A6.61 6.61 0 0 0 31.1.5c-1.27.75-2.67 1.29-4.17 1.59A6.535 6.535 0 0 0 22.14.02c-3.62 0-6.56 2.94-6.56 6.56 0 .51.06 1.01.17 1.5C10.3 7.81 5.46 5.19 2.23 1.22c-.56.97-.88 2.1-.88 3.3 0 2.28 1.16 4.29 2.92 5.46a6.623 6.623 0 0 1-2.97-.82v.09c0 3.17 2.26 5.83 5.26 6.44a6.566 6.566 0 0 1-2.96.11c.83 2.61 3.26 4.5 6.13 4.56a13.126 13.126 0 0 1-8.15 2.81c-.52 0-1.05-.03-1.56-.09 2.89 1.84 6.35 2.93 10.04 2.93" style="fill:#5a5a5a" data-name="Logo — FIXED"/></g></svg>